<?xml version="1.0" encoding="utf-8"?>
<!-- Generator: Adobe Illustrator 19.1.0, SVG Export Plug-In . SVG Version: 6.00 Build 0)  -->
<!DOCTYPE svg PUBLIC "-//W3C//DTD SVG 1.1//EN" "http://www.w3.org/Graphics/SVG/1.1/DTD/svg11.dtd">
<svg version="1.1" id="Layer_1" xmlns="http://www.w3.org/2000/svg" xmlns:xlink="http://www.w3.org/1999/xlink" x="0px" y="0px"
	 viewBox="0 0 300 300" enable-background="new 0 0 300 300" xml:space="preserve">
<path fill="#5046CE" d="M150,187.2l-1.5-2.8c-2.6-4.9-6.9-7.1-10.5-7.1c-0.7,0-1.3,0.1-1.9,0.2c-3.5,0.9-5.5,4-5.5,8.6
	c0,10.8,15.2,24,19.4,27.4c4.2-3.4,19.4-16.6,19.4-27.4c0-4.5-1.9-7.5-5.3-8.4c-3.8-1-9.5,1-12.6,6.7L150,187.2z"/>
<radialGradient id="SVGID_1_" cx="152.1399" cy="197.1275" r="124.7625" gradientUnits="userSpaceOnUse">
	<stop  offset="1.322115e-03" style="stop-color:#52EBEE"/>
	<stop  offset="0.1284" style="stop-color:#54EBEB"/>
	<stop  offset="0.2308" style="stop-color:#59EBE1"/>
	<stop  offset="0.3245" style="stop-color:#62EBD0"/>
	<stop  offset="0.4131" style="stop-color:#6FEBB8"/>
	<stop  offset="0.4981" style="stop-color:#7FEB99"/>
	<stop  offset="0.5793" style="stop-color:#93EB74"/>
	<stop  offset="0.6276" style="stop-color:#A1EB5A"/>
	<stop  offset="0.682" style="stop-color:#B2EB4F"/>
	<stop  offset="0.82" style="stop-color:#D8EC37"/>
	<stop  offset="0.9309" style="stop-color:#EFEC28"/>
	<stop  offset="1" style="stop-color:#F8EC23"/>
</radialGradient>
<path fill="url(#SVGID_1_)" d="M176.5,189.1c51.1-17.5,69.4-68.8,69.4-68.8c-50.5-2.3-86.8,44.8-86.8,44.8c20-70.5-9-113.5-9-113.5
	s-29,43-9,113.5c0,0-36.3-47.2-86.8-44.8c0,0,18.3,51.3,69.4,68.8c0,0-32.8-2.9-49.4,16.4c0,0,21.7,9.7,58.9-4.6
	c-3.3-4.7-5.9-9.8-5.9-14.7c0-6.2,3-10.7,8.1-12c5.2-1.3,11.1,1.3,14.8,6.2c3.8-4.9,9.7-7.4,15-6c4.9,1.3,7.9,5.7,7.9,11.8
	c0,4.9-2.5,10.1-5.9,14.7c37.1,14.3,58.9,4.6,58.9,4.6C209.3,186.2,176.5,189.1,176.5,189.1z"/>
<radialGradient id="SVGID_2_" cx="153.9152" cy="198.3847" r="117.4916" gradientUnits="userSpaceOnUse">
	<stop  offset="1.322115e-03" style="stop-color:#52EBEE"/>
	<stop  offset="0.1284" style="stop-color:#54EBEB"/>
	<stop  offset="0.2308" style="stop-color:#59EBE1"/>
	<stop  offset="0.3245" style="stop-color:#62EBD0"/>
	<stop  offset="0.4131" style="stop-color:#6FEBB8"/>
	<stop  offset="0.4981" style="stop-color:#7FEB99"/>
	<stop  offset="0.5793" style="stop-color:#93EB74"/>
	<stop  offset="0.6276" style="stop-color:#A1EB5A"/>
	<stop  offset="0.682" style="stop-color:#B2EB4F"/>
	<stop  offset="0.82" style="stop-color:#D8EC37"/>
	<stop  offset="0.9309" style="stop-color:#EFEC28"/>
	<stop  offset="1" style="stop-color:#F8EC23"/>
</radialGradient>
<path fill="url(#SVGID_2_)" d="M166.5,201.6c-2.4,3.3-5.3,6.3-7.8,8.8c10.8,9.3,20.8,11.5,20.8,11.5
	C178.3,211.8,171.1,205,166.5,201.6z"/>
<radialGradient id="SVGID_3_" cx="150.0865" cy="198.3847" r="118.2669" gradientUnits="userSpaceOnUse">
	<stop  offset="1.322115e-03" style="stop-color:#52EBEE"/>
	<stop  offset="0.1284" style="stop-color:#54EBEB"/>
	<stop  offset="0.2308" style="stop-color:#59EBE1"/>
	<stop  offset="0.3245" style="stop-color:#62EBD0"/>
	<stop  offset="0.4131" style="stop-color:#6FEBB8"/>
	<stop  offset="0.4981" style="stop-color:#7FEB99"/>
	<stop  offset="0.5793" style="stop-color:#93EB74"/>
	<stop  offset="0.6276" style="stop-color:#A1EB5A"/>
	<stop  offset="0.682" style="stop-color:#B2EB4F"/>
	<stop  offset="0.82" style="stop-color:#D8EC37"/>
	<stop  offset="0.9309" style="stop-color:#EFEC28"/>
	<stop  offset="1" style="stop-color:#F8EC23"/>
</radialGradient>
<path fill="url(#SVGID_3_)" d="M133.5,201.6c-4.7,3.4-11.8,10.2-13,20.3c0,0,9.9-2.2,20.8-11.5C138.8,207.9,136,204.9,133.5,201.6z"
	/>
</svg>
